{"glyphs":{":":{"x_min":0,"x_max":195,"ha":195,"o":"m 49 98 l 146 98 l 146 0 l 49 0 z m 49 391 l 146 391 l 146 293 l 49 293 z"},"$":{"x_min":0,"x_max":732,"ha":732,"o":"m 415 293 l 415 146 l 513 146 q 543 146 564 168 q 586 189 586 220 q 586 250 564 271 q 543 293 513 293 z m 317 537 l 220 537 q 189 537 168 516 q 146 494 146 464 q 146 434 168 412 q 189 391 220 391 l 317 391 z m 317 293 l 220 293 q 149 293 99 343 q 49 393 49 464 q 49 535 99 585 q 149 635 220 635 l 317 635 l 317 684 l 415 684 l 415 635 l 684 635 l 684 537 l 415 537 l 415 391 l 513 391 q 583 391 634 341 q 684 291 684 220 q 684 149 634 99 q 583 49 513 49 l 415 49 l 415 0 l 317 0 l 317 49 l 49 49 l 49 146 l 317 146 z"},"?":{"x_min":0,"x_max":732,"ha":732,"o":"m 366 293 q 336 293 314 271 q 293 250 293 220 l 293 146 l 195 146 l 195 220 q 195 291 245 341 q 295 391 366 391 l 513 391 q 543 391 564 412 q 586 434 586 464 l 586 513 q 586 543 564 564 q 543 586 513 586 l 49 586 l 49 684 l 513 684 q 583 684 634 634 q 684 583 684 513 l 684 464 q 684 393 634 343 q 583 293 513 293 z m 195 98 l 293 98 l 293 0 l 195 0 z"},"<":{"x_min":0,"x_max":635,"ha":635,"o":"m 49 269 l 49 415 l 586 586 l 586 488 l 146 349 l 146 335 l 586 195 l 586 98 z"},"'":{"x_min":0,"x_max":195,"ha":195,"o":"m 98 586 l 49 586 l 49 684 l 146 684 l 146 562 q 146 542 132 527 q 118 513 98 513 l 78 513 l 49 562 l 73 562 q 98 562 98 586 z"},"=":{"x_min":0,"x_max":635,"ha":635,"o":"m 49 488 l 586 488 l 586 391 l 49 391 z m 49 293 l 586 293 l 586 195 l 49 195 z"},"a":{"x_min":0,"x_max":635,"ha":635,"o":"m 146 171 q 146 141 168 119 q 189 98 220 98 l 488 98 l 488 415 l 220 415 q 189 415 168 394 q 146 372 146 342 z m 586 0 l 220 0 q 149 0 99 50 q 49 100 49 171 l 49 342 q 49 413 99 463 q 149 513 220 513 l 586 513 z"},"L":{"x_min":0,"x_max":684,"ha":684,"o":"m 635 98 l 635 0 l 220 0 q 149 0 99 50 q 49 100 49 171 l 49 684 l 146 684 l 146 171 q 146 141 168 119 q 189 98 220 98 z"},"3":{"x_min":0,"x_max":732,"ha":732,"o":"m 195 293 l 195 391 l 513 391 q 543 391 564 412 q 586 434 586 464 l 586 513 q 586 543 564 564 q 543 586 513 586 l 49 586 l 49 684 l 513 684 q 583 684 634 634 q 684 583 684 513 l 684 464 q 684 393 634 341 q 684 291 684 220 l 684 171 q 684 100 634 50 q 583 0 513 0 l 49 0 l 49 98 l 513 98 q 543 98 564 119 q 586 141 586 171 l 586 220 q 586 250 564 271 q 543 293 513 293 z"},";":{"x_min":0,"x_max":195,"ha":195,"o":"m 49 391 l 146 391 l 146 293 l 49 293 z m 98 0 l 49 0 l 49 98 l 146 98 l 146 -24 q 146 -44 132 -59 q 118 -73 98 -73 l 78 -73 l 49 -24 l 73 -24 q 98 -24 98 0 z"},"J":{"x_min":0,"x_max":684,"ha":684,"o":"m 464 98 q 494 98 516 119 q 537 141 537 171 l 537 684 l 635 684 l 635 171 q 635 100 585 50 q 535 0 464 0 l 49 0 l 49 98 z"},"V":{"x_min":0,"x_max":732,"ha":732,"o":"m 293 0 l 24 684 l 122 684 l 352 98 l 380 98 l 610 684 l 708 684 l 439 0 z"},"\"":{"x_min":0,"x_max":342,"ha":342,"o":"m 98 586 l 49 586 l 49 684 l 146 684 l 146 562 q 146 542 132 527 q 118 513 98 513 l 78 513 l 49 562 l 73 562 q 98 562 98 586 z m 244 586 l 195 586 l 195 684 l 293 684 l 293 562 q 293 542 279 527 q 264 513 244 513 l 224 513 l 195 562 l 220 562 q 244 562 244 586 z"},"7":{"x_min":0,"x_max":732,"ha":732,"o":"m 635 684 l 342 0 l 232 0 l 483 586 l 49 586 l 49 684 z"},"S":{"x_min":0,"x_max":781,"ha":781,"o":"m 220 293 q 149 293 99 343 q 49 393 49 464 l 49 513 q 49 583 99 634 q 149 684 220 684 l 732 684 l 732 586 l 220 586 q 189 586 168 564 q 146 543 146 513 l 146 464 q 146 434 168 412 q 189 391 220 391 l 562 391 q 632 391 682 341 q 732 291 732 220 l 732 171 q 732 100 682 50 q 632 0 562 0 l 49 0 l 49 98 l 562 98 q 592 98 613 119 q 635 141 635 171 l 635 220 q 635 250 613 271 q 592 293 562 293 z"},"}":{"x_min":0,"x_max":537,"ha":537,"o":"m 294 341 q 244 393 244 464 l 244 562 q 244 592 223 613 q 201 635 171 635 l 49 635 l 49 732 l 171 732 q 242 732 292 682 q 342 632 342 562 l 342 464 q 342 434 363 412 q 385 391 415 391 l 488 391 l 488 293 l 415 293 q 385 293 363 271 q 342 250 342 220 l 342 122 q 342 51 292 1 q 242 -49 171 -49 l 49 -49 l 49 49 l 171 49 q 201 49 223 70 q 244 92 244 122 l 244 220 q 244 291 294 341 z"},"Z":{"x_min":0,"x_max":781,"ha":781,"o":"m 541 586 l 49 586 l 49 684 l 732 684 l 241 98 l 732 98 l 732 0 l 49 0 z"},"x":{"x_min":0,"x_max":586,"ha":586,"o":"m 232 256 l 24 513 l 146 513 l 293 332 l 439 513 l 562 513 l 354 256 l 562 0 l 439 0 l 293 181 l 146 0 l 24 0 z"},")":{"x_min":0,"x_max":488,"ha":488,"o":"m 269 49 q 299 49 320 70 q 342 92 342 122 l 342 562 q 342 592 320 613 q 299 635 269 635 l 49 635 l 49 732 l 269 732 q 339 732 389 682 q 439 632 439 562 l 439 122 q 439 51 389 1 q 339 -49 269 -49 l 49 -49 l 49 49 z"},"&":{"x_min":0,"x_max":732,"ha":732,"o":"m 366 98 q 396 98 418 119 q 439 141 439 171 l 439 269 q 439 299 418 320 q 396 342 366 342 l 220 342 q 189 342 168 320 q 146 299 146 269 l 146 171 q 146 141 168 119 q 189 98 220 98 z m 366 439 q 396 439 418 461 q 439 482 439 513 q 439 543 418 564 q 396 586 366 586 l 220 586 q 189 586 168 564 q 146 543 146 513 q 146 482 168 461 q 189 439 220 439 z m 488 51 q 488 51 487 50 q 437 0 366 0 l 220 0 q 149 0 99 50 q 49 100 49 171 l 49 269 q 49 339 99 390 q 100 390 100 391 q 100 391 99 392 q 49 442 49 513 q 49 583 99 634 q 149 684 220 684 l 366 684 q 437 684 487 634 q 537 583 537 513 q 537 442 490 390 q 540 439 610 439 l 685 439 l 684 342 l 610 342 q 580 342 559 320 q 537 299 537 269 l 537 171 q 537 141 559 119 q 580 98 610 98 l 684 98 l 684 0 l 610 0 q 540 0 490 50 q 489 51 488 51 z"},"_":{"x_min":0,"x_max":684,"ha":684,"o":"m 635 -49 l 635 -146 l 49 -146 l 49 -49 z"},"v":{"x_min":0,"x_max":586,"ha":586,"o":"m 306 98 l 464 513 l 562 513 l 366 0 l 220 0 l 24 513 l 122 513 l 280 98 z"},"O":{"x_min":0,"x_max":781,"ha":781,"o":"m 146 171 q 146 141 168 119 q 189 98 220 98 l 562 98 q 592 98 613 119 q 635 141 635 171 l 635 513 q 635 543 613 564 q 592 586 562 586 l 220 586 q 189 586 168 564 q 146 543 146 513 z m 732 171 q 732 100 682 50 q 632 0 562 0 l 220 0 q 149 0 99 50 q 49 100 49 171 l 49 513 q 49 583 99 634 q 149 684 220 684 l 562 684 q 632 684 682 634 q 732 583 732 513 z"},"(":{"x_min":0,"x_max":488,"ha":488,"o":"m 439 49 l 439 -49 l 220 -49 q 149 -49 99 1 q 49 51 49 122 l 49 562 q 49 632 99 682 q 149 732 220 732 l 439 732 l 439 635 l 220 635 q 189 635 168 613 q 146 592 146 562 l 146 122 q 146 92 168 70 q 189 49 220 49 z"},"C":{"x_min":0,"x_max":781,"ha":781,"o":"m 732 98 l 732 0 l 220 0 q 149 0 99 50 q 49 100 49 171 l 49 513 q 49 583 99 634 q 149 684 220 684 l 732 684 l 732 586 l 220 586 q 189 586 168 564 q 146 543 146 513 l 146 171 q 146 141 168 119 q 189 98 220 98 z"},"W":{"x_min":0,"x_max":1001,"ha":1001,"o":"m 195 0 l 24 684 l 122 684 l 270 91 l 439 684 l 562 684 l 709 91 l 879 684 l 977 684 l 781 0 l 635 0 l 498 547 l 342 0 z"},"A":{"x_min":0,"x_max":781,"ha":781,"o":"m 376 586 l 262 293 l 520 293 l 405 586 z m 464 684 l 732 0 l 635 0 l 558 195 l 223 195 l 146 0 l 49 0 l 317 684 z"},"f":{"x_min":0,"x_max":439,"ha":439,"o":"m 146 415 l 146 0 l 49 0 l 49 513 q 49 583 99 634 q 149 684 220 684 l 391 684 l 391 586 l 220 586 q 189 586 168 564 q 146 543 146 513 l 391 513 l 391 415 z"},"Q":{"x_min":0,"x_max":781,"ha":781,"o":"m 342 0 l 220 0 q 149 0 99 50 q 49 100 49 171 l 49 513 q 49 583 99 634 q 149 684 220 684 l 562 684 q 632 684 682 634 q 732 583 732 513 l 732 171 q 732 100 682 50 q 632 0 562 0 l 439 0 l 439 -98 l 342 -98 z m 342 98 l 342 195 l 439 195 l 439 98 l 562 98 q 592 98 613 119 q 635 141 635 171 l 635 513 q 635 543 613 564 q 592 586 562 586 l 220 586 q 189 586 168 564 q 146 543 146 513 l 146 171 q 146 141 168 119 q 189 98 220 98 z"},"w":{"x_min":0,"x_max":732,"ha":732,"o":"m 146 0 l 24 513 l 122 513 l 220 103 l 317 513 l 415 513 l 513 103 l 610 513 l 708 513 l 586 0 l 439 0 l 366 308 l 293 0 z"},"-":{"x_min":0,"x_max":635,"ha":635,"o":"m 49 391 l 586 391 l 586 293 l 49 293 z"},"E":{"x_min":0,"x_max":781,"ha":781,"o":"m 146 293 l 146 171 q 146 141 168 119 q 189 98 220 98 l 732 98 l 732 0 l 220 0 q 149 0 99 50 q 49 100 49 171 l 49 513 q 49 583 99 634 q 149 684 220 684 l 732 684 l 732 586 l 220 586 q 189 586 168 564 q 146 543 146 513 l 146 391 l 635 391 l 635 293 z"},"s":{"x_min":0,"x_max":635,"ha":635,"o":"m 171 513 l 537 513 l 537 415 l 171 415 q 161 415 154 408 q 146 401 146 391 l 146 330 q 146 319 154 312 q 161 305 171 305 l 464 305 q 515 305 550 270 q 586 234 586 183 l 586 123 q 586 71 550 36 q 515 0 464 0 l 49 0 l 49 98 l 464 98 q 474 98 481 105 q 488 112 488 122 l 488 183 q 488 193 481 200 q 474 208 464 208 l 171 208 q 120 208 84 243 q 49 279 49 330 l 49 391 q 49 441 84 477 q 120 513 171 513 z"},">":{"x_min":0,"x_max":635,"ha":635,"o":"m 49 98 l 49 195 l 488 335 l 488 349 l 49 488 l 49 586 l 586 415 l 586 269 z"},"l":{"x_min":0,"x_max":195,"ha":195,"o":"m 49 684 l 146 684 l 146 0 l 49 0 z"},"8":{"x_min":0,"x_max":732,"ha":732,"o":"m 513 98 q 543 98 564 119 q 586 141 586 171 l 586 220 q 586 250 564 271 q 543 293 513 293 l 220 293 q 189 293 168 271 q 146 250 146 220 l 146 171 q 146 141 168 119 q 189 98 220 98 z m 513 391 q 543 391 564 412 q 586 434 586 464 l 586 513 q 586 543 564 564 q 543 586 513 586 l 220 586 q 189 586 168 564 q 146 543 146 513 l 146 464 q 146 434 168 412 q 189 391 220 391 z m 513 684 q 583 684 634 634 q 684 583 684 513 l 684 464 q 684 393 634 343 q 633 342 632 342 q 633 341 634 341 q 684 291 684 220 l 684 171 q 684 100 634 50 q 583 0 513 0 l 220 0 q 149 0 99 50 q 49 100 49 171 l 49 220 q 49 291 99 341 q 100 341 100 342 q 100 342 99 343 q 49 393 49 464 l 49 513 q 49 583 99 634 q 149 684 220 684 z"},"\\":{"x_min":0,"x_max":464,"ha":464,"o":"m 146 684 l 415 0 l 317 0 l 49 684 z"},"e":{"x_min":0,"x_max":635,"ha":635,"o":"m 146 195 l 146 171 q 146 141 168 119 q 189 98 220 98 l 537 98 l 537 0 l 220 0 q 149 0 99 50 q 49 100 49 171 l 49 342 q 49 413 99 463 q 149 513 220 513 l 415 513 q 486 513 536 463 q 586 413 586 342 l 586 195 z m 488 293 l 488 342 q 488 372 467 394 q 445 415 415 415 l 220 415 q 189 415 168 394 q 146 372 146 342 l 146 293 z"},"b":{"x_min":0,"x_max":635,"ha":635,"o":"m 488 342 q 488 372 467 394 q 445 415 415 415 l 146 415 l 146 98 l 415 98 q 445 98 467 119 q 488 141 488 171 z m 49 684 l 146 684 l 146 513 l 415 513 q 486 513 536 463 q 586 413 586 342 l 586 171 q 586 100 536 50 q 486 0 415 0 l 49 0 z"},"%":{"x_min":0,"x_max":781,"ha":781,"o":"m 146 488 q 146 458 168 437 q 189 415 220 415 l 269 415 q 299 415 320 437 q 342 458 342 488 l 342 513 q 342 543 320 564 q 299 586 269 586 l 220 586 q 189 586 168 564 q 146 543 146 513 z m 439 171 q 439 141 461 119 q 482 98 513 98 l 562 98 q 592 98 613 119 q 635 141 635 171 l 635 195 q 635 226 613 247 q 592 269 562 269 l 513 269 q 482 269 461 247 q 439 226 439 195 z m 338 332 q 306 317 269 317 l 220 317 q 149 317 99 367 q 49 417 49 488 l 49 513 q 49 583 99 634 q 149 684 220 684 l 269 684 q 339 684 390 634 q 418 604 431 568 l 476 684 l 574 684 l 443 352 q 475 366 513 366 l 562 366 q 632 366 682 316 q 732 266 732 195 l 732 171 q 732 100 682 50 q 632 0 562 0 l 513 0 q 442 0 392 50 q 363 79 351 115 l 305 0 l 208 0 z"},"m":{"x_min":0,"x_max":928,"ha":928,"o":"m 415 342 q 415 372 394 394 q 372 415 342 415 l 220 415 q 189 415 168 394 q 146 372 146 342 l 146 0 l 49 0 l 49 342 q 49 413 99 463 q 149 513 220 513 l 342 513 q 413 513 463 463 q 463 462 464 461 q 464 462 465 463 q 515 513 586 513 l 708 513 q 779 513 829 463 q 879 413 879 342 l 879 0 l 781 0 l 781 342 q 781 372 760 394 q 738 415 708 415 l 586 415 q 556 415 534 394 q 513 372 513 342 l 513 0 l 415 0 z"},"#":{"x_min":0,"x_max":635,"ha":635,"o":"m 146 488 l 146 635 l 244 635 l 244 488 l 391 488 l 391 635 l 488 635 l 488 488 l 586 488 l 586 391 l 488 391 l 488 293 l 586 293 l 586 195 l 488 195 l 488 49 l 391 49 l 391 195 l 244 195 l 244 49 l 146 49 l 146 195 l 49 195 l 49 293 l 146 293 l 146 391 l 49 391 l 49 488 z m 244 391 l 244 293 l 391 293 l 391 391 z"},",":{"x_min":0,"x_max":195,"ha":195,"o":"m 98 0 l 49 0 l 49 98 l 146 98 l 146 -24 q 146 -44 132 -59 q 118 -73 98 -73 l 78 -73 l 49 -24 l 73 -24 q 98 -24 98 0 z"},"n":{"x_min":0,"x_max":635,"ha":635,"o":"m 146 0 l 49 0 l 49 342 q 49 413 99 463 q 149 513 220 513 l 415 513 q 486 513 536 463 q 586 413 586 342 l 586 0 l 488 0 l 488 342 q 488 372 467 394 q 445 415 415 415 l 220 415 q 189 415 168 394 q 146 372 146 342 z"},"h":{"x_min":0,"x_max":635,"ha":635,"o":"m 146 0 l 49 0 l 49 684 l 146 684 l 146 513 l 415 513 q 486 513 536 463 q 586 413 586 342 l 586 0 l 488 0 l 488 342 q 488 372 467 394 q 445 415 415 415 l 146 415 z"},"z":{"x_min":0,"x_max":635,"ha":635,"o":"m 250 98 l 586 98 l 586 0 l 49 0 l 385 415 l 49 415 l 49 513 l 586 513 z"},"B":{"x_min":0,"x_max":781,"ha":781,"o":"m 146 391 l 562 391 q 592 391 613 412 q 635 434 635 464 l 635 513 q 635 543 613 564 q 592 586 562 586 l 146 586 z m 49 684 l 562 684 q 632 684 682 634 q 732 583 732 513 l 732 464 q 732 393 683 343 q 682 342 681 342 q 682 341 683 341 q 732 291 732 220 l 732 171 q 732 100 682 50 q 632 0 562 0 l 49 0 z m 146 293 l 146 98 l 562 98 q 592 98 613 119 q 635 141 635 171 l 635 220 q 635 250 613 271 q 592 293 562 293 z"},"K":{"x_min":0,"x_max":757,"ha":757,"o":"m 49 684 l 146 684 l 146 249 l 610 684 l 732 684 l 405 376 l 732 0 l 623 0 l 344 320 l 146 134 l 146 0 l 49 0 z"},"R":{"x_min":0,"x_max":781,"ha":781,"o":"m 146 342 l 562 342 q 592 342 613 363 q 635 385 635 415 l 635 513 q 635 543 613 564 q 592 586 562 586 l 146 586 z m 146 0 l 49 0 l 49 684 l 562 684 q 632 684 682 634 q 732 583 732 513 l 732 415 q 732 344 683 294 q 682 293 681 293 q 682 292 683 292 q 732 242 732 171 l 732 0 l 635 0 l 635 171 q 635 201 613 223 q 592 244 562 244 l 146 244 z"},"T":{"x_min":0,"x_max":781,"ha":781,"o":"m 732 684 l 732 586 l 439 586 l 439 0 l 342 0 l 342 586 l 49 586 l 49 684 z"},"P":{"x_min":0,"x_max":781,"ha":781,"o":"m 146 342 l 562 342 q 592 342 613 363 q 635 385 635 415 l 635 513 q 635 543 613 564 q 592 586 562 586 l 146 586 z m 49 684 l 562 684 q 632 684 682 634 q 732 583 732 513 l 732 415 q 732 344 682 294 q 632 244 562 244 l 146 244 l 146 0 l 49 0 z"},"|":{"x_min":0,"x_max":195,"ha":195,"o":"m 49 732 l 146 732 l 146 -49 l 49 -49 z"},"t":{"x_min":0,"x_max":439,"ha":439,"o":"m 391 513 l 391 415 l 146 415 l 146 171 q 146 141 168 120 q 189 98 220 98 l 391 98 l 391 0 l 220 0 q 149 0 99 51 q 49 101 49 171 l 49 684 l 146 684 l 146 513 z"},"M":{"x_min":0,"x_max":830,"ha":830,"o":"m 342 0 l 146 497 l 146 0 l 49 0 l 49 684 l 171 684 l 401 98 l 429 98 l 659 684 l 781 684 l 781 0 l 684 0 l 684 497 l 488 0 z"},"g":{"x_min":0,"x_max":635,"ha":635,"o":"m 146 171 q 146 141 168 119 q 189 98 220 98 l 488 98 l 488 415 l 220 415 q 189 415 168 394 q 146 372 146 342 z m 488 0 l 220 0 q 149 0 99 50 q 49 100 49 171 l 49 342 q 49 413 99 463 q 149 513 220 513 l 586 513 l 586 -24 q 586 -95 536 -145 q 486 -195 415 -195 l 146 -195 l 146 -98 l 415 -98 q 445 -98 467 -76 q 488 -55 488 -24 z"},"j":{"x_min":0,"x_max":195,"ha":195,"o":"m 49 513 l 146 513 l 146 -24 q 146 -95 96 -145 q 46 -195 -24 -195 l -49 -195 l -49 -98 l -24 -98 q 6 -98 27 -76 q 49 -55 49 -24 z m 49 684 l 146 684 l 146 586 l 49 586 z"},"i":{"x_min":0,"x_max":195,"ha":195,"o":"m 49 513 l 146 513 l 146 0 l 49 0 z m 146 684 l 146 586 l 49 586 l 49 684 z"},"y":{"x_min":0,"x_max":635,"ha":635,"o":"m 488 513 l 586 513 l 586 -24 q 586 -95 536 -145 q 486 -195 415 -195 l 146 -195 l 146 -98 l 415 -98 q 445 -98 467 -76 q 488 -55 488 -24 l 488 0 l 220 0 q 149 0 99 50 q 49 100 49 171 l 49 513 l 146 513 l 146 171 q 146 141 168 119 q 189 98 220 98 l 488 98 z"},"@":{"x_min":0,"x_max":684,"ha":684,"o":"m 293 317 q 293 287 314 266 q 336 244 366 244 l 537 244 l 537 439 l 366 439 q 336 439 314 418 q 293 396 293 366 z m 537 586 l 220 586 q 189 586 168 564 q 146 543 146 513 l 146 171 q 146 141 168 119 q 189 98 220 98 l 586 98 l 586 0 l 220 0 q 149 0 99 50 q 49 100 49 171 l 49 513 q 49 583 99 634 q 149 684 220 684 l 635 684 l 635 146 l 366 146 q 295 146 245 197 q 195 247 195 317 l 195 366 q 195 437 245 487 q 295 537 366 537 l 537 537 z"},".":{"x_min":0,"x_max":195,"ha":195,"o":"m 49 98 l 146 98 l 146 0 l 49 0 z"},"p":{"x_min":0,"x_max":635,"ha":635,"o":"m 488 342 q 488 372 467 394 q 445 415 415 415 l 146 415 l 146 98 l 415 98 q 445 98 467 119 q 488 141 488 171 z m 49 513 l 415 513 q 486 513 536 463 q 586 413 586 342 l 586 171 q 586 100 536 50 q 486 0 415 0 l 146 0 l 146 -171 l 49 -171 z"},"X":{"x_min":0,"x_max":732,"ha":732,"o":"m 312 342 l 24 684 l 134 684 l 366 407 l 598 684 l 708 684 l 421 342 l 708 0 l 598 0 l 366 276 l 134 0 l 24 0 z"},"*":{"x_min":0,"x_max":513,"ha":513,"o":"m 306 604 l 428 644 l 458 551 l 336 512 l 411 408 l 332 351 l 257 454 l 182 351 l 103 408 l 178 512 l 56 551 l 86 644 l 208 604 l 208 732 l 306 732 z"},"Y":{"x_min":0,"x_max":732,"ha":732,"o":"m 317 335 l 312 342 l 24 684 l 134 684 l 366 407 l 598 684 l 708 684 l 421 342 l 415 334 l 415 0 l 317 0 z"},"c":{"x_min":0,"x_max":635,"ha":635,"o":"m 586 98 l 586 0 l 220 0 q 149 0 99 50 q 49 100 49 171 l 49 342 q 49 413 99 463 q 149 513 220 513 l 586 513 l 586 415 l 220 415 q 189 415 168 394 q 146 372 146 342 l 146 171 q 146 141 168 119 q 189 98 220 98 z"},"!":{"x_min":0,"x_max":195,"ha":195,"o":"m 146 146 l 49 146 l 49 684 l 146 684 z m 49 0 l 49 98 l 146 98 l 146 0 z"},"/":{"x_min":0,"x_max":464,"ha":464,"o":"m 49 0 l 317 684 l 415 684 l 146 0 z"},"[":{"x_min":0,"x_max":488,"ha":488,"o":"m 439 49 l 439 -49 l 49 -49 l 49 732 l 439 732 l 439 635 l 146 635 l 146 49 z"},"6":{"x_min":0,"x_max":732,"ha":732,"o":"m 146 342 l 146 171 q 146 141 168 119 q 189 98 220 98 l 513 98 q 543 98 564 119 q 586 141 586 171 l 586 269 q 586 299 564 320 q 543 342 513 342 z m 146 439 l 513 439 q 583 439 634 389 q 684 339 684 269 l 684 171 q 684 100 634 50 q 583 0 513 0 l 220 0 q 149 0 99 50 q 49 100 49 171 l 49 513 q 49 583 99 634 q 149 684 220 684 l 635 684 l 635 586 l 220 586 q 189 586 168 564 q 146 543 146 513 z"},"r":{"x_min":0,"x_max":439,"ha":439,"o":"m 49 0 l 49 342 q 49 413 99 463 q 149 513 220 513 l 391 513 l 391 415 l 220 415 q 189 415 168 394 q 146 372 146 342 l 146 0 z"},"2":{"x_min":0,"x_max":732,"ha":732,"o":"m 220 293 q 189 293 168 271 q 146 250 146 220 l 146 98 l 684 98 l 684 0 l 49 0 l 49 220 q 49 291 99 341 q 149 391 220 391 l 513 391 q 543 391 564 412 q 586 434 586 464 l 586 513 q 586 543 564 564 q 543 586 513 586 l 49 586 l 49 684 l 513 684 q 583 684 634 634 q 684 583 684 513 l 684 464 q 684 393 634 343 q 583 293 513 293 z"},"{":{"x_min":0,"x_max":537,"ha":537,"o":"m 293 220 l 293 122 q 293 92 314 70 q 336 49 366 49 l 488 49 l 488 -49 l 366 -49 q 295 -49 245 1 q 195 51 195 122 l 195 220 q 195 250 174 271 q 152 293 122 293 l 49 293 l 49 391 l 122 391 q 152 391 174 412 q 195 434 195 464 l 195 562 q 195 632 245 682 q 295 732 366 732 l 488 732 l 488 635 l 366 635 q 336 635 314 613 q 293 592 293 562 l 293 464 q 293 393 243 341 q 293 291 293 220 z"},"9":{"x_min":0,"x_max":732,"ha":732,"o":"m 586 342 l 586 513 q 586 543 564 564 q 543 586 513 586 l 220 586 q 189 586 168 564 q 146 543 146 513 l 146 415 q 146 385 168 363 q 189 342 220 342 z m 586 244 l 220 244 q 149 244 99 294 q 49 344 49 415 l 49 513 q 49 583 99 634 q 149 684 220 684 l 513 684 q 583 684 634 634 q 684 583 684 513 l 684 171 q 684 100 634 50 q 583 0 513 0 l 98 0 l 98 98 l 513 98 q 543 98 564 119 q 586 141 586 171 z"}," ":{"x_min":0,"x_max":391,"ha":391,"o":""},"I":{"x_min":0,"x_max":195,"ha":195,"o":"m 49 684 l 146 684 l 146 0 l 49 0 z"},"H":{"x_min":0,"x_max":781,"ha":781,"o":"m 49 684 l 146 684 l 146 391 l 635 391 l 635 684 l 732 684 l 732 0 l 635 0 l 635 293 l 146 293 l 146 0 l 49 0 z"},"4":{"x_min":0,"x_max":732,"ha":732,"o":"m 586 195 l 684 195 l 684 98 l 586 98 l 586 0 l 488 0 l 488 98 l 49 98 l 342 684 l 464 684 l 220 195 l 488 195 l 488 342 l 586 342 z"},"~":{"x_min":0,"x_max":684,"ha":684,"o":"m 171 977 l 269 977 q 319 977 355 941 q 391 905 391 854 q 391 844 398 837 q 405 830 415 830 l 513 830 q 523 830 530 837 q 537 844 537 854 l 537 903 l 635 903 l 635 854 q 635 804 599 768 q 563 732 513 732 l 415 732 q 364 732 329 768 q 293 804 293 854 q 293 865 286 872 q 279 879 269 879 l 171 879 q 161 879 154 872 q 146 865 146 854 l 146 806 l 49 806 l 49 854 q 49 905 84 941 q 120 977 171 977 z"},"D":{"x_min":0,"x_max":781,"ha":781,"o":"m 146 98 l 562 98 q 592 98 613 119 q 635 141 635 171 l 635 513 q 635 543 613 564 q 592 586 562 586 l 146 586 z m 732 171 q 732 100 682 50 q 632 0 562 0 l 49 0 l 49 684 l 562 684 q 632 684 682 634 q 732 583 732 513 z"},"^":{"x_min":0,"x_max":684,"ha":684,"o":"m 49 732 l 49 830 l 342 977 l 635 830 l 635 732 l 342 879 z"},"0":{"x_min":0,"x_max":732,"ha":732,"o":"m 146 171 q 146 141 168 119 q 189 98 220 98 l 513 98 q 543 98 564 119 q 586 141 586 171 l 586 513 q 586 543 564 564 q 543 586 513 586 l 220 586 q 189 586 168 564 q 146 543 146 513 z m 684 171 q 684 100 634 50 q 583 0 513 0 l 220 0 q 149 0 99 50 q 49 100 49 171 l 49 513 q 49 583 99 634 q 149 684 220 684 l 513 684 q 583 684 634 634 q 684 583 684 513 z"},"F":{"x_min":0,"x_max":781,"ha":781,"o":"m 146 293 l 146 0 l 49 0 l 49 513 q 49 583 99 634 q 149 684 220 684 l 732 684 l 732 586 l 220 586 q 189 586 168 564 q 146 543 146 513 l 146 391 l 635 391 l 635 293 z"},"`":{"x_min":0,"x_max":439,"ha":439,"o":"m 49 977 l 269 977 l 391 732 l 269 732 z"},"k":{"x_min":0,"x_max":610,"ha":610,"o":"m 49 684 l 146 684 l 146 248 l 171 269 l 464 513 l 586 513 l 293 269 l 586 0 l 439 0 l 227 213 l 146 146 l 146 0 l 49 0 z"},"u":{"x_min":0,"x_max":635,"ha":635,"o":"m 488 513 l 586 513 l 586 171 q 586 100 536 50 q 486 0 415 0 l 220 0 q 149 0 99 50 q 49 100 49 171 l 49 513 l 146 513 l 146 171 q 146 141 168 119 q 189 98 220 98 l 415 98 q 445 98 467 119 q 488 141 488 171 z"},"]":{"x_min":0,"x_max":488,"ha":488,"o":"m 342 49 l 342 635 l 49 635 l 49 732 l 439 732 l 439 -49 l 49 -49 l 49 49 z"},"U":{"x_min":0,"x_max":781,"ha":781,"o":"m 146 171 q 146 141 168 119 q 189 98 220 98 l 562 98 q 592 98 613 119 q 635 141 635 171 l 635 684 l 732 684 l 732 171 q 732 100 682 50 q 632 0 562 0 l 220 0 q 149 0 99 50 q 49 100 49 171 l 49 684 l 146 684 z"},"o":{"x_min":0,"x_max":635,"ha":635,"o":"m 146 171 q 146 141 168 119 q 189 98 220 98 l 415 98 q 445 98 467 119 q 488 141 488 171 l 488 342 q 488 372 467 394 q 445 415 415 415 l 220 415 q 189 415 168 394 q 146 372 146 342 z m 586 171 q 586 100 536 50 q 486 0 415 0 l 220 0 q 149 0 99 50 q 49 100 49 171 l 49 342 q 49 413 99 463 q 149 513 220 513 l 415 513 q 486 513 536 463 q 586 413 586 342 z"},"N":{"x_min":0,"x_max":781,"ha":781,"o":"m 146 567 l 146 0 l 49 0 l 49 684 l 159 684 l 635 116 l 635 684 l 732 684 l 732 0 l 623 0 z"},"+":{"x_min":0,"x_max":635,"ha":635,"o":"m 269 293 l 49 293 l 49 391 l 269 391 l 269 586 l 366 586 l 366 391 l 586 391 l 586 293 l 366 293 l 366 98 l 269 98 z"},"G":{"x_min":0,"x_max":781,"ha":781,"o":"m 732 391 l 732 171 q 732 100 682 50 q 632 0 562 0 l 220 0 q 149 0 99 50 q 49 100 49 171 l 49 513 q 49 583 99 634 q 149 684 220 684 l 732 684 l 732 586 l 220 586 q 189 586 168 564 q 146 543 146 513 l 146 171 q 146 141 168 119 q 189 98 220 98 l 562 98 q 592 98 613 119 q 635 141 635 171 l 635 293 l 391 293 l 391 391 z"},"q":{"x_min":0,"x_max":635,"ha":635,"o":"m 146 171 q 146 141 168 119 q 189 98 220 98 l 488 98 l 488 415 l 220 415 q 189 415 168 394 q 146 372 146 342 z m 586 -171 l 488 -171 l 488 0 l 220 0 q 149 0 99 50 q 49 100 49 171 l 49 342 q 49 413 99 463 q 149 513 220 513 l 586 513 z"},"d":{"x_min":0,"x_max":635,"ha":635,"o":"m 146 171 q 146 141 168 119 q 189 98 220 98 l 488 98 l 488 415 l 220 415 q 189 415 168 394 q 146 372 146 342 z m 586 0 l 220 0 q 149 0 99 50 q 49 100 49 171 l 49 342 q 49 413 99 463 q 149 513 220 513 l 488 513 l 488 684 l 586 684 z"},"1":{"x_min":0,"x_max":195,"ha":195,"o":"m 49 684 l 146 684 l 146 0 l 49 0 z"},"5":{"x_min":0,"x_max":732,"ha":732,"o":"m 49 342 l 49 684 l 635 684 l 635 586 l 146 586 l 146 439 l 513 439 q 583 439 634 389 q 684 339 684 269 l 684 171 q 684 100 634 50 q 583 0 513 0 l 49 0 l 49 98 l 513 98 q 543 98 564 119 q 586 141 586 171 l 586 269 q 586 299 564 320 q 543 342 513 342 z"}}}
